<svg xmlns="http://www.w3.org/2000/svg" width="24" height="24" viewBox="0 0 24 24">
    <path data-name="Path 5497" d="M0 0h24v24H0z" style="fill:none"/>
    <path data-name="Path 5498" d="M4 18h11a1 1 0 0 0 1-1 1 1 0 0 0-1-1H4a1 1 0 0 0-1 1 1 1 0 0 0 1 1zm0-5h8a1 1 0 0 0 1-1 1 1 0 0 0-1-1H4a1 1 0 0 0-1 1 1 1 0 0 0 1 1zM3 7a1 1 0 0 0 1 1h11a1 1 0 0 0 1-1 1 1 0 0 0-1-1H4a1 1 0 0 0-1 1zm17.3 7.88L17.42 12l2.88-2.88a1 1 0 0 0 0-1.41 1 1 0 0 0-1.41 0L15.3 11.3a1 1 0 0 0 0 1.41l3.59 3.59a1 1 0 0 0 1.41 0 1.017 1.017 0 0 0 0-1.42z"/>
    <path data-name="Path 5499" d="M0 0h24v24H0z" style="fill:none"/>
</svg>
